<svg width="18" height="18" viewBox="0 0 18 18" fill="none" xmlns="http://www.w3.org/2000/svg">
<rect width="18" height="18" rx="4" fill="#FC6057"/>
<path d="M6.48014 9.42383C6.16193 9.15866 5.68901 9.20165 5.42383 9.51986C5.15866 9.83807 5.20165 10.311 5.51986 10.5762L6.48014 9.42383ZM9 12.5L8.51986 13.0762C8.798 13.3079 9.202 13.3079 9.48014 13.0762L9 12.5ZM12.4801 10.5762C12.7983 10.311 12.8413 9.83807 12.5762 9.51986C12.311 9.20165 11.8381 9.15866 11.5199 9.42383L12.4801 10.5762ZM5.51986 10.5762L8.51986 13.0762L9.48014 11.9238L6.48014 9.42383L5.51986 10.5762ZM9.48014 13.0762L12.4801 10.5762L11.5199 9.42383L8.51986 11.9238L9.48014 13.0762Z" fill="white"/>
<path d="M8.25 12C8.25 12.4142 8.58579 12.75 9 12.75C9.41421 12.75 9.75 12.4142 9.75 12H8.25ZM9.75 6C9.75 5.58579 9.41421 5.25 9 5.25C8.58579 5.25 8.25 5.58579 8.25 6H9.75ZM9.75 12V6H8.25V12H9.75Z" fill="white"/>
</svg>
