<svg width="65" height="68" viewBox="0 0 65 68" fill="none" xmlns="http://www.w3.org/2000/svg">
<path d="M34.5238 37.6456C30.631 39.8691 28.7105 42.1961 27.88 45.9193C27.5166 48.0394 27.4647 48.8668 27.2571 50.1596L26.79 53.7276L25.2328 65.7762C25.0771 66.9656 26.0114 67.9998 27.2052 67.9998H37.5344C38.7801 67.9998 39.7144 66.9139 39.5067 65.6728L35.51 42.6098C35.2505 41.0068 37.1191 39.9208 38.3648 40.955L56.4278 55.9512C57.3621 56.7268 58.8155 56.4683 59.4383 55.4341L64.577 46.5398C65.1998 45.5056 64.7327 44.1611 63.6427 43.6957L52.3792 39.0417L49.0573 37.6456C47.8635 37.1802 47.1368 36.8182 45.0606 36.0425C41.3753 34.9049 38.4167 35.422 34.5238 37.6456Z" fill="#FC6057"/>
<path d="M20.9246 46.488C21.9108 45.7124 22.6374 45.247 24.2984 43.8508C27.1013 41.2652 28.1913 38.3177 28.1394 33.974C28.0875 29.6303 27.1013 26.6828 24.2984 24.0973C22.6374 22.7011 21.9108 22.2357 20.9246 21.46L18.0698 19.2881L8.41542 11.8935C7.48113 11.1695 6.07969 11.4281 5.50873 12.4623L0.318216 21.4083C-0.304647 22.4942 0.214405 23.8387 1.35632 24.2524L23.416 32.371C24.9213 32.9398 24.9213 35.0599 23.416 35.6288L1.35632 43.6957C0.214405 44.1093 -0.304647 45.5055 0.318216 46.5398L5.45683 55.434C6.07969 56.4682 7.42923 56.7268 8.36352 56.0028L18.0179 48.6082L20.9246 46.488Z" fill="#FF9F62"/>
<path d="M27.2571 17.8402C27.4647 19.0813 27.4647 19.9087 27.88 22.0805C28.7105 25.8037 30.6829 28.1824 34.5238 30.3543C38.3648 32.5261 41.3753 33.0949 45.0087 31.9573C47.0849 31.2333 47.8116 30.8196 49.0054 30.3543L52.3273 28.9581L63.5908 24.3041C64.6808 23.8387 65.1479 22.4942 64.525 21.46L59.3864 12.5657C58.7636 11.4798 57.3621 11.2212 56.3759 12.0486L38.3129 27.0448C37.0672 28.079 35.1986 26.993 35.4581 25.39L39.4548 2.32699C39.6625 1.08593 38.7282 0 37.4824 0H27.2052C26.0114 0 25.0771 1.03422 25.2328 2.22357L26.79 14.2722L27.2571 17.8402Z" fill="#3D2F84"/>
<path d="M30.8906 40.2825C29.3335 41.8338 28.3992 43.592 27.8282 45.919C27.4649 48.0391 27.413 48.8665 27.2054 50.1593L26.7382 53.7273L25.1811 65.776C25.0253 66.9653 25.9596 67.9995 27.1535 67.9995H37.4826C38.7283 67.9995 39.6626 66.9136 39.455 65.6725L35.4583 42.6095C35.1988 41.0065 37.0673 39.9205 38.3131 40.9548C38.3131 40.9548 34.0568 37.1799 30.8906 40.2825Z" fill="#DD5652"/>
<path d="M27.6724 29.4752C27.1014 27.355 26.0633 25.6486 24.2986 24.0455C22.6376 22.6493 21.9109 22.184 20.9247 21.4083L18.0699 19.2364L8.36367 11.8935C7.42937 11.1695 6.02793 11.4281 5.45698 12.4623L0.266458 21.3566C-0.356404 22.4425 0.162647 23.787 1.30456 24.2007L23.3643 32.3193C24.8695 32.8881 24.8695 35.0082 23.3643 35.5771C23.3643 35.5771 28.7624 33.7672 27.6724 29.4752Z" fill="#D88556"/>
<path d="M38.6763 32.1124C40.8044 32.6813 42.7768 32.6296 45.0607 31.9056C47.1369 31.1817 47.8635 30.768 49.0574 30.3026L52.3793 28.9064L63.6427 24.2524C64.7327 23.787 65.1999 22.4425 64.6289 21.4083L59.4903 12.514C58.8674 11.4281 57.466 11.1696 56.4798 11.9969L38.3649 26.9931C37.1192 28.0273 35.2506 26.9414 35.5101 25.3383C35.5101 25.39 34.3682 30.8714 38.6763 32.1124Z" fill="#1E1B6D"/>
</svg>
